<svg width="640" height="640" viewBox="0 0 640 640" fill="none" xmlns="http://www.w3.org/2000/svg">
<path d="M193.233 302.108C173.137 295.89 157.751 275.916 156.244 254.184C155.867 248.468 156.621 242.062 160.703 238.23C164.973 234.21 172.007 234.462 176.717 237.916C181.427 241.371 183.939 247.401 184.253 253.43C177.471 247.463 172.321 239.612 169.369 230.944C165.413 219.325 166.292 204.816 175.335 196.839C184.379 188.862 201.9 193.51 202.779 205.758C190.47 185.847 191.663 157.897 205.605 139.242C210.189 133.087 217.16 127.56 224.571 129.004C235.372 131.14 238.449 145.398 239.203 156.766C234.681 144.016 233.237 129.444 238.261 116.882C243.285 104.32 255.97 94.5846 268.97 96.092C282.346 97.6622 292.96 112.046 291.013 125.864C292.206 104.571 308.597 83.9069 329.07 83.0276C334.973 82.7764 341.127 84.221 345.649 88.178C348.475 90.6904 350.484 94.0193 351.991 97.5366C356.827 108.78 356.387 122.284 350.798 133.15C351.929 122.284 355.131 111.041 362.73 103.441C370.329 95.8408 383.203 93.2656 391.555 99.9862C401.855 108.277 400.347 125.047 395.261 137.546C401.164 129.758 407.695 122.032 416.487 118.138C425.216 114.244 436.709 115.312 442.675 123.037C451.09 133.966 444.433 149.983 437.085 161.665C441.733 155.447 446.505 149.103 452.974 145.021C459.442 140.938 467.983 139.431 474.514 143.388C481.359 147.533 484.248 156.515 483.62 164.743C482.992 172.971 479.412 180.508 475.958 187.857C480.731 184.34 485.63 180.759 491.219 179.252C496.871 177.745 503.528 178.624 507.421 183.083C510.31 186.35 511.315 190.997 511.378 195.394C511.503 209.338 503.088 221.649 495.05 232.891C500.576 227.553 509.368 225.04 513.45 225.292C519.604 225.668 524.44 231.51 524.377 237.916C524.252 244.26 522.807 252.865 518.851 257.701C514.894 262.538 511.315 265.238 505.726 270.075C511.315 265.238 515.836 264.61 521.363 264.61C534.551 264.61 530.657 274.597 529.276 277.863C520.17 299.47 497.059 310.399 475.456 317.747C431.245 332.696 385.275 341.113 339.432 349.529C321.534 352.795 303.384 356.124 285.298 354.554C267.212 352.984 248.811 346.075 236.816 331.88" fill="#F0F0F0"/>
<path d="M298.423 425.152C290.887 416.924 282.221 416.296 274.371 424.21C266.458 432.061 263.821 439.033 260.492 448.768C255.091 462.901 253.27 478.414 255.343 493.426C255.782 496.818 256.536 500.335 258.483 503.224C262.753 509.442 272.11 510.51 278.893 507.244C285.738 503.978 290.385 497.509 293.965 490.851C301.752 476.216 305.394 459.446 304.389 442.927C303.95 436.52 302.757 429.863 298.423 425.152Z" fill="#141414"/>
<path d="M260.995 468.428C260.995 468.428 261.497 455.929 266.647 455.929C275.062 455.929 272.299 468.616 272.299 468.616C272.299 468.616 274.434 452.348 282.535 454.358C290.636 456.368 285.612 471.191 285.612 471.191C285.612 471.191 290.134 459.257 295.032 460.828C301.375 462.9 295.786 473.327 295.786 473.327" stroke="white" stroke-width="6.4513" stroke-miterlimit="10" stroke-linecap="round" stroke-linejoin="round"/>
<path d="M375.228 412.967C365.619 407.314 357.204 409.198 351.929 418.997C346.654 428.795 346.088 436.206 345.774 446.507C344.707 461.644 347.47 476.97 353.75 490.725C355.194 493.866 356.89 497.006 359.59 499.142C365.494 503.852 374.725 502.157 380.314 497.069C385.904 491.981 388.541 484.444 389.986 477.033C393.188 460.765 391.807 443.681 386.029 428.167C383.831 422.263 380.691 416.233 375.228 412.967Z" fill="#141414"/>
<path d="M351.929 465.287C351.929 465.287 348.789 453.165 353.687 451.658C361.788 449.208 362.73 462.147 362.73 462.147C362.73 462.147 360.093 446.005 368.382 445.565C376.672 445.125 376.232 460.828 376.232 460.828C376.232 460.828 377.112 448.077 382.261 448.203C388.918 448.329 386.657 459.948 386.657 459.948" stroke="white" stroke-width="6.4513" stroke-miterlimit="10" stroke-linecap="round" stroke-linejoin="round"/>
<path d="M177.094 313.413C177.094 247.715 246.174 194.452 331.456 194.452C416.738 194.452 482.301 244.951 485.818 313.413C489.649 388.659 437.776 429.549 328.944 429.549C208.682 429.549 177.094 379.112 177.094 313.413Z" fill="#926CEF"/>
<path d="M486.069 358.95C485.881 376.788 486.132 396.008 496.808 410.266C499.069 413.281 503.151 416.17 506.291 414.097C508.049 412.904 508.614 410.643 508.866 408.57C509.682 401.975 508.803 395.192 506.228 389.036C509.054 399.023 519.353 415.919 528.271 412.967C535.87 408.821 523.372 389.853 518.788 381.625C521.614 388.031 527.078 393.245 533.609 395.82C541.019 396.574 534.425 381.688 530.594 375.658C523.184 363.85 512.069 354.365 499.195 348.964C496.934 348.022 494.547 347.205 492.098 347.519C489.775 347.77 486.132 349.466 486.069 358.95Z" fill="#926CEF"/>
<path d="M321.534 374.527C321.534 374.527 321.408 390.921 315.128 400.154C335.726 394.124 340.311 390.292 340.311 390.292" stroke="#141414" stroke-width="5.4858" stroke-miterlimit="10" stroke-linecap="round" stroke-linejoin="round"/>
<path d="M323.732 398.144L337.799 401.912" stroke="#141414" stroke-width="5.4858" stroke-miterlimit="10" stroke-linecap="round" stroke-linejoin="round"/>
<path d="M290.762 293.314C291.829 297.523 294.153 301.291 297.167 303.866C288.187 307.761 278.202 308.326 268.907 305.499" stroke="#141414" stroke-width="5.4858" stroke-miterlimit="10" stroke-linecap="round"/>
<path d="M368.948 293.189C367.629 297.962 366.059 302.673 364.112 307.195C369.136 307.572 374.223 307.698 379.184 306.818C384.145 305.939 389.044 304.055 392.874 300.789" stroke="#141414" stroke-width="5.4858" stroke-miterlimit="10" stroke-linecap="round"/>
<path d="M247.932 282.825C247.492 284.709 249.062 286.405 251.009 286.217C262.125 285.149 302.442 280.752 307.843 273.906C314.123 265.929 298.423 251.923 292.771 266.369C287.119 261.344 273.554 264.296 276.443 273.278C264.888 265.301 260.115 277.675 260.743 278.931C257.603 277.863 249.188 277.738 247.932 282.825Z" fill="#F0F0F0"/>
<path d="M412.217 280.313C412.656 282.197 411.086 283.893 409.139 283.704C398.024 282.637 357.706 278.24 352.306 271.394C346.026 263.417 359.339 246.898 367.503 261.344C373.783 253.807 388.353 258.204 384.459 269.509C396.014 261.533 400.033 275.162 399.405 276.419C402.608 275.351 411.023 275.225 412.217 280.313Z" fill="#F0F0F0"/>
<path d="M300.307 363.661C295.283 367.932 289.82 373.02 289.506 379.615C289.38 381.374 290.259 383.697 292.018 383.635C293.022 383.635 293.839 382.755 294.53 382.002C297.104 378.861 299.24 375.344 300.81 371.575C300.37 374.339 300.872 377.291 302.191 379.74C302.819 380.871 303.698 382.002 304.954 382.253C306.901 382.693 308.722 380.934 309.602 379.112C310.418 377.291 310.795 375.155 312.176 373.648C312.365 376.412 313.495 379.175 315.693 380.808C317.891 382.441 321.157 382.693 323.355 381.059C325.741 379.238 326.181 375.721 328.316 373.585C328.693 376.349 330.012 378.924 332.021 380.808C333.026 381.75 334.282 382.567 335.664 382.63C337.862 382.755 339.871 381.059 340.75 379.05C341.63 377.04 341.692 374.778 341.755 372.517C343.011 374.967 344.456 377.417 346.779 378.861C349.103 380.306 352.557 380.243 354.19 378.045C355.948 375.721 354.943 372.392 355.634 369.565C356.325 371.198 358.272 372.14 359.967 371.575C360.595 367.116 357.644 362.719 353.75 360.332C349.856 358.008 345.272 357.317 340.75 357.003C326.055 355.998 309.476 355.873 300.307 363.661Z" fill="#F0F0F0"/>
<path d="M281.844 342.117C304.492 342.117 322.852 323.305 322.852 300.098C322.852 276.891 304.492 258.078 281.844 258.078C259.196 258.078 240.836 276.891 240.836 300.098C240.836 323.305 259.196 342.117 281.844 342.117Z" stroke="#F6AD43" stroke-width="7" stroke-miterlimit="10"/>
<path d="M379.623 342.117C402.272 342.117 420.632 323.305 420.632 300.098C420.632 276.891 402.272 258.078 379.623 258.078C356.975 258.078 338.615 276.891 338.615 300.098C338.615 323.305 356.975 342.117 379.623 342.117Z" stroke="#F6AD43" stroke-width="7" stroke-miterlimit="10"/>
<path d="M322.852 300.098H338.552H322.852Z" stroke="#F6AD43" stroke-width="7" stroke-miterlimit="10"/>
<path d="M35.7868 267.771C36.123 267.139 36.9274 266.999 37.4708 267.444L161.591 362.414C162.677 363.304 162.835 364.885 161.959 365.91L157.333 371.56C156.443 372.646 154.862 372.804 153.836 371.928L36.0334 269.244C35.6126 268.827 35.4922 268.22 35.7868 267.771Z" fill="#F6AD43"/>
<path d="M163.404 381.311C169.3 381.311 174.079 376.53 174.079 370.633C174.079 364.736 169.3 359.955 163.404 359.955C157.507 359.955 152.728 364.736 152.728 370.633C152.728 376.53 157.507 381.311 163.404 381.311Z" fill="#141414"/>
<path d="M363.233 216.31C351.866 222.151 341.19 229.374 329.509 234.462C313.872 241.308 296.539 244.26 279.52 242.941C276.066 242.69 272.424 242.187 269.472 240.366C266.458 238.544 264.197 235.153 264.762 231.698C265.328 228.055 268.719 225.543 271.796 223.533C273.554 222.402 275.815 221.209 277.574 222.402C280.211 224.161 277.26 228.809 274.182 228.181C271.105 227.553 260.618 216.687 262.502 207.391C264.762 196.336 274.559 196.902 283.791 198.535C287.245 199.163 292.018 195.897 292.646 199.351C287.119 203.308 278.641 198.221 277.26 191.563C275.815 184.905 279.332 178.121 283.665 172.845C287.998 167.507 293.336 162.921 299.302 159.467C303.824 156.829 308.785 154.756 313.998 154.631C319.21 154.505 324.674 156.515 327.751 160.786C330.828 165.057 330.702 171.589 326.872 175.107C323.041 178.624 315.693 177.619 313.684 172.783C311.36 167.255 316.447 161.477 321.408 158.085C332.21 150.799 345.021 146.528 358.02 146.026C366.184 145.712 376.232 148.287 378.242 156.201C379.435 161.037 377.111 165.999 374.223 170.082C370.078 175.986 363.924 181.388 356.702 181.513C368.131 170.773 385.652 167.13 400.41 172.28C403.55 173.348 406.627 174.918 408.7 177.493C410.772 180.069 411.526 183.9 409.83 186.726C408.825 188.359 407.193 189.427 405.56 190.369C399.405 193.887 398.589 194.829 407.193 195.143C414.163 195.457 420.381 199.728 423.583 205.13C426.033 209.149 424.4 215.682 419.627 215.682C399.531 204.187 374.599 210.468 363.233 216.31Z" fill="#F0F0F0"/>
<path d="M269.849 225.229C269.849 225.229 249.125 199.477 281.153 198.221C267.337 185.03 275.501 166.816 295.597 170.584C300.496 139.431 330.012 139.054 337.045 155.51C340.813 129.13 379.749 141.064 378.493 156.138" stroke="white" stroke-width="5.4858" stroke-miterlimit="10" stroke-linecap="round" stroke-linejoin="round"/>
</svg>
